<svg xmlns="http://www.w3.org/2000/svg" width="320" height="320" viewBox="0 0 320 320" role="img" aria-label="Kid 4 avatar">
  <defs>
    <linearGradient id="bg4" x1="0" y1="0" x2="1" y2="1">
      <stop offset="0%" stop-color="#FFECB3"/>
      <stop offset="50%" stop-color="#FFE0B2"/>
      <stop offset="100%" stop-color="#FFCCBC"/>
    </linearGradient>
    <linearGradient id="skin4" x1="0" x2="0" y1="0" y2="1">
      <stop offset="0%" stop-color="#ffd7b3"/>
      <stop offset="100%" stop-color="#f4bf97"/>
    </linearGradient>
    <linearGradient id="jacketRed" x1="0" x2="0" y1="0" y2="1">
      <stop offset="0%" stop-color="#E53935"/>
      <stop offset="100%" stop-color="#C62828"/>
    </linearGradient>
    <linearGradient id="purple" x1="0" x2="0" y1="0" y2="1">
      <stop offset="0%" stop-color="#9C27B0"/>
      <stop offset="100%" stop-color="#7B1FA2"/>
    </linearGradient>
  </defs>
  <rect width="320" height="320" rx="24" fill="url(#bg4)"/>
  <!-- Confetti -->
  <circle cx="30" cy="30" r="6" fill="#FFD700"/>
  <circle cx="290" cy="290" r="5" fill="#D81B60"/>
  <circle cx="60" cy="290" r="5" fill="#4DD0E1"/>
  <circle cx="260" cy="30" r="6" fill="#8BC34A"/>
  <path d="M40 100l10 6-10 6-10-6z" fill="#FFAB00"/>
  <path d="M280 220l10 6-10 6-10-6z" fill="#673AB7"/>

  <!-- Head -->
  <circle cx="160" cy="110" r="60" fill="url(#skin4)"/>
  <!-- Hair (short, spiky) -->
  <path d="M110 80c0-20 20-30 50-30s50 10 50 30c-10-10-30-15-50-15s-40 5-50 15z" fill="#3F51B5"/>
  <path d="M110 80q-5 -15 0 -20t20 0t30 -10t30 10t20 0t0 20" fill="#3F51B5"/>
  <!-- Eyes -->
  <circle cx="140" cy="110" r="6" fill="#3a2a20"/>
  <circle cx="180" cy="110" r="6" fill="#3a2a20"/>
  <!-- Smile -->
  <path d="M135 132c8 10 42 10 50 0" stroke="#3a2a20" stroke-width="4" fill="none" stroke-linecap="round"/>

  <!-- Colorful school jacket -->
  <path d="M90 182c24 10 52 16 70 16s46-6 70-16v94H90z" fill="url(#jacketRed)"/>
  <!-- White shirt under jacket -->
  <rect x="115" y="174" width="90" height="70" rx="10" fill="#FFFFFF"/>
  <!-- Bow tie -->
  <path d="M160 185l-20 12 20 12 20-12z" fill="url(#purple)"/>
  <circle cx="160" cy="197" r="6" fill="#4A148C"/>
  <!-- Badge -->
  <circle cx="94" cy="210" r="10" fill="#FFEB3B" stroke="#F57F17"/>
  <path d="M94 204l2.5 5h5l-4 3 1.5 5-4.5-3-4.5 3 1.5-5-4-3h5z" fill="#F57F17"/>

  <!-- Hands (peeking) -->
  <circle cx="110" cy="240" r="10" fill="url(#skin4)"/>
  <circle cx="210" cy="240" r="10" fill="url(#skin4)"/>
</svg>
